<svg xmlns="http://www.w3.org/2000/svg" width="1200" height="400" viewBox="0 0 1200 400" fill="none"><title>Xiaobay-tech — From Vision to Devices.</title><rect x="0" y="0" width="1200" height="400" rx="16" fill="#111A25" stroke="none" stroke-width="2"/><text x="64" y="58" fill="#73DDD6" font-family="Segoe UI,Arial,sans-serif" font-size="18" font-weight="700">X /</text><text x="109" y="57" fill="#8193A7" font-family="Segoe UI,Arial,sans-serif" font-size="11" letter-spacing="2">AN OPEN ENGINEERING COLLECTIVE</text><path d="M64 80H1136" fill="none" stroke="#304052" stroke-width="2" stroke-linecap="round" stroke-linejoin="round"/><text x="60" y="198" fill="#EEF3F8" font-family="Segoe UI,Arial,sans-serif" font-size="78" font-weight="650" letter-spacing="-3">Xiaobay-tech</text><text x="64" y="245" fill="#73DDD6" font-family="Segoe UI,Arial,sans-serif" font-size="27" >From Vision to Devices.</text><text x="64" y="304" fill="#8193A7" font-family="Segoe UI,Arial,sans-serif" font-size="12" letter-spacing="2">VISION  /  CODE  /  HARDWARE</text><path d="M64 348H1136" fill="none" stroke="#304052" stroke-width="2" stroke-linecap="round" stroke-linejoin="round"/><text x="64" y="376" fill="#8193A7" font-family="Segoe UI,Arial,sans-serif" font-size="10" letter-spacing="1.5">COMPUTER VISION &amp; ON-DEVICE ENGINEERING</text><text x="1136" y="376" fill="#8193A7" font-family="Segoe UI,Arial,sans-serif" font-size="10" text-anchor="end" letter-spacing="1.5">DESIGNED TO CONNECT.</text><rect x="763" y="109" width="173" height="205" rx="16" fill="#203441" stroke="none" stroke-width="2"/><rect x="953" y="109" width="183" height="92" rx="16" fill="#2D3451" stroke="none" stroke-width="2"/><rect x="953" y="219" width="183" height="95" rx="16" fill="#1E4548" stroke="none" stroke-width="2"/><circle cx="849" cy="207" r="58" fill="none" stroke="#73DDD6" stroke-width="2"/><circle cx="849" cy="207" r="37" fill="none" stroke="#73DDD6" stroke-width="2"/><circle cx="849" cy="207" r="15" fill="#73DDD6" stroke="none" stroke-width="2"/><path d="M780 151v-25h25m89 0h25v25M780 263v25h25m89 0h25v-25" fill="none" stroke="#73DDD6" stroke-width="2" stroke-linecap="round" stroke-linejoin="round"/><path d="m1005 139-16 16 16 16m80-32 16 16-16 16m-38-41-17 52" fill="none" stroke="#9BAAFF" stroke-width="3" stroke-linecap="round" stroke-linejoin="round"/><rect x="1022" y="242" width="46" height="46" rx="7" fill="none" stroke="#73DDD6" stroke-width="2"/><path d="M1031 235v7M1031 288v7M1015 251h7M1068 251h7" fill="none" stroke="#73DDD6" stroke-width="2" stroke-linecap="round" stroke-linejoin="round"/><path d="M1045 235v7M1045 288v7M1015 265h7M1068 265h7" fill="none" stroke="#73DDD6" stroke-width="2" stroke-linecap="round" stroke-linejoin="round"/><path d="M1059 235v7M1059 288v7M1015 279h7M1068 279h7" fill="none" stroke="#73DDD6" stroke-width="2" stroke-linecap="round" stroke-linejoin="round"/><path d="M936 157h17M936 267h17" fill="none" stroke="#8193A7" stroke-width="2" stroke-linecap="round" stroke-linejoin="round"/></svg>

